<svg width="1024" height="1024" viewBox="0 0 1024 1024" xmlns="http://www.w3.org/2000/svg" version="1.1">
 <g>
  <title>Layer 1</title>
  <path id="svg_1" fill-rule="evenodd" fill="#34c8ad" d="m281.315,228.979c-2.852,0.433 -8.252,1.725 -12,2.872c-20.114,6.154 -39.662,25.827 -45.797,46.091c-1.775,5.86 -1.775,5.86 -7.251,6.544c-24.464,3.056 -44.442,20.496 -50.994,44.514c-1.671,6.126 -1.766,17.671 -1.654,200.5c0.118,194 0.118,194 2.265,202c4.185,15.59 12.239,29.469 23.277,40.112c10.945,10.554 23.645,17.65 38.249,21.372c7.837,1.997 10.464,2.016 285.09,2.016c274.952,0 277.244,-0.016 285.09,-2.023c9.059,-2.317 18.416,-6.473 26.388,-11.72c12.852,-8.459 26.121,-25.056 31.383,-39.251c5.92,-15.972 5.694,-6.894 5.404,-216.535c-0.265,-191.971 -0.265,-191.971 -2.603,-198.971c-7.892,-23.622 -24.714,-37.652 -50.539,-42.15c-4.877,-0.85 -4.877,-0.85 -7.315,-7.657c-8.19,-22.87 -24.536,-38.373 -48.343,-45.849c-7.465,-2.344 -7.465,-2.344 -84.965,-2.344c-75.431,0 -77.754,0.057 -87,2.13c-27.89,6.252 -51.481,21.339 -65.158,41.672c-2.657,3.951 -2.657,3.951 -5.136,0.074c-9.923,-15.517 -31.695,-31.378 -52.706,-38.397c-15.957,-5.331 -15.072,-5.279 -95.5,-5.542c-41.25,-0.135 -77.333,0.109 -80.185,0.542m2.185,24.09c-14.578,2.187 -28.234,12.885 -35.278,27.636c-3.722,7.795 -3.722,7.795 -3.722,207.295c0,199.5 0,199.5 3.201,206.259c6.083,12.84 17.97,22.269 31.185,24.736c3.283,0.612 32.626,1.005 75.119,1.005c74.189,0 77.674,0.186 94.495,5.056c18.102,5.24 31.034,11.705 43.962,21.978c7.538,5.99 7.538,5.99 7.538,-36.814c0,-42.805 0,-42.805 -10.935,-44.532c-35.73,-5.643 -64.746,-20.982 -90.702,-47.95c-16.065,-16.69 -27.259,-35.306 -34.824,-57.915c-4.5,-13.449 -6.183,-21.658 -7.452,-36.352c-3.032,-35.094 6.222,-70.031 26.745,-100.971c8.093,-12.202 25.898,-30.346 38.445,-39.178c21.208,-14.929 47.79,-25.147 72.574,-27.898c6.35,-0.705 6.35,-0.705 5.927,-24.815c-0.399,-22.756 -0.564,-24.481 -2.929,-30.729c-3.601,-9.512 -7.364,-15.507 -14.25,-22.699c-10.05,-10.499 -25.687,-19.015 -41.853,-22.793c-6.394,-1.495 -15.716,-1.725 -79.246,-1.956c-39.6,-0.145 -74.7,0.142 -78,0.637m323.5,0.035c-19.531,0.524 -23.424,0.901 -29.5,2.852c-21.661,6.957 -38.493,20.111 -46.487,36.33c-5.854,11.876 -6.975,18.656 -6.996,42.304c-0.017,20.089 -0.017,20.089 9.233,21.226c23.56,2.896 46,11.506 67.733,25.987c11.726,7.813 32.859,29.041 40.516,40.697c23.888,36.366 32.335,78.969 23.891,120.494c-2.481,12.201 -8.041,27.564 -14.494,40.049c-22.903,44.309 -65.455,74.856 -114.896,82.48c-5.225,0.806 -10.062,1.468 -10.75,1.471c-0.981,0.005 -1.25,9.276 -1.25,43.006c0,23.65 0.249,43 0.554,43c0.305,0 1.993,-1.374 3.75,-3.052c5.119,-4.889 18.722,-13.624 27.807,-17.854c9.056,-4.217 26.437,-9.43 36.889,-11.063c3.933,-0.615 33.95,-1.021 76,-1.029c39.254,-0.008 72.033,-0.428 75.321,-0.967c19.244,-3.152 33.349,-18.602 35.685,-39.091c0.577,-5.055 0.72,-81.96 0.368,-198.35c-0.573,-190.094 -0.573,-190.094 -2.822,-196.696c-6.043,-17.742 -19.894,-29.216 -38.552,-31.936c-7.752,-1.13 -87.833,-1.044 -132,0.142m-395.929,57.061c-4.387,1.26 -11.061,5.851 -14.616,10.054c-1.526,1.804 -4.165,6.206 -5.865,9.781c-3.09,6.5 -3.09,6.5 -3.09,199c0,184.068 0.081,192.763 1.84,198.5c5.169,16.858 16.093,30.15 30.746,37.409c14.878,7.37 10.254,7.143 144.164,7.066c67.175,-0.039 118.75,-0.449 118.75,-0.944c0,-1.176 -7.289,-7.356 -13.708,-11.621c-7.199,-4.784 -22.852,-10.861 -34.792,-13.507c-9.68,-2.145 -12.436,-2.237 -86,-2.849c-84.4,-0.702 -79.985,-0.34 -93.149,-7.633c-17.802,-9.861 -29.893,-26.028 -34.354,-45.934c-0.623,-2.781 -0.99,-73.087 -1.005,-192.434c-0.023,-188.053 -0.023,-188.053 -2.757,-187.963c-1.504,0.05 -4.278,0.533 -6.164,1.075m593.894,184.457c-0.039,205.945 0.315,194.798 -6.639,209.622c-8.415,17.939 -22.088,30.148 -40.956,36.572c-7.87,2.679 -7.87,2.679 -82.37,2.93c-79.343,0.268 -81.99,0.414 -97.094,5.356c-10.136,3.316 -21.817,9.336 -29.33,15.117c-3.809,2.93 -7.106,5.872 -7.328,6.538c-0.316,0.946 26.513,1.091 122.424,0.665c105.375,-0.469 123.681,-0.763 128.828,-2.068c19.037,-4.826 34.162,-18.914 41.305,-38.473c2.695,-7.381 2.695,-7.381 2.983,-196.881c0.203,-133.595 -0.034,-191.385 -0.803,-195.889c-2.556,-14.957 -13.426,-26.559 -26.902,-28.714c-4.083,-0.653 -4.083,-0.653 -4.118,185.225m-310.465,-114.948c-6.769,0.845 -18.509,3.745 -26.5,6.547c-45.367,15.905 -78.412,55.385 -86.609,103.472c-2.59,15.195 -1.539,38.184 2.44,53.353c6.695,25.52 17.773,44.575 36.368,62.555c33.754,32.635 80.517,44.812 126.256,32.875c42.632,-11.126 76.878,-43.4 91.057,-85.816c4.663,-13.947 6.489,-25.506 6.484,-41.041c-0.009,-28.301 -7.51,-52.996 -23.268,-76.604c-6.265,-9.385 -23.933,-27.008 -33.303,-33.218c-16.117,-10.682 -34.512,-18.125 -52.351,-21.182c-8.649,-1.482 -31.915,-2.022 -40.574,-0.941m-18.88,52.559c-5.914,1.565 -11.205,7.442 -12.539,13.928c-0.76,3.692 -0.955,24.697 -0.634,68.094c0.415,56.164 0.641,63.128 2.149,66.306c2.095,4.416 6.613,7.911 12.117,9.375c4.786,1.274 7.86,0.742 14.287,-2.473c5.62,-2.81 101.453,-58.937 105.258,-61.647c6.776,-4.824 8.857,-16.532 4.316,-24.281c-2.598,-4.433 -7.216,-7.333 -75.074,-47.153c-41.184,-24.167 -41.583,-24.344 -49.88,-22.149m11.045,28.435c-0.366,0.366 -0.665,23.348 -0.665,51.072c0,42.226 0.223,50.354 1.373,50.083c0.755,-0.178 20.526,-11.573 43.936,-25.323c32.562,-19.126 42.283,-25.274 41.376,-26.165c-0.652,-0.641 -18.285,-11.154 -39.185,-23.361c-20.9,-12.208 -39.838,-23.27 -42.085,-24.583c-2.247,-1.313 -4.384,-2.088 -4.75,-1.723m479.855,486.239"/>
 </g>
</svg>
